<?xml version="1.0" encoding="utf-8"?>
<!-- Generator: Adobe Illustrator 24.1.1, SVG Export Plug-In . SVG Version: 6.00 Build 0)  -->
<svg version="1.1" id="Layer_1" xmlns="http://www.w3.org/2000/svg" xmlns:xlink="http://www.w3.org/1999/xlink" x="0px" y="0px"
	 viewBox="0 0 512 512" style="enable-background:new 0 0 512 512;" xml:space="preserve">
<style type="text/css">
	.st0{fill:url(#SVGID_1_);}
	.st1{fill:url(#SVGID_2_);}
	.st2{fill:#FFFFFF;}
</style>
<g>
	
		<linearGradient id="SVGID_1_" gradientUnits="userSpaceOnUse" x1="-0.576" y1="511.0813" x2="1.4232" y2="511.0813" gradientTransform="matrix(-48.3545 274.2314 -274.2314 -48.3545 140431.2656 24852.8711)">
		<stop  offset="0" style="stop-color:#FAAE42"/>
		<stop  offset="1" style="stop-color:#EF3E31"/>
	</linearGradient>
	<path class="st0" d="M113.8,0.1c3,0,278.5,0,283.5,0c13.8,0,27.2,2.2,40.2,6.8c18.8,6.8,35.8,18.8,48.6,34.4
		c13,15.6,21.6,34.8,24.6,54.8c1.2,7.4,1.4,14.8,1.4,22.2c0,6.8,0,246.3,0,257.1c0,6.4,0,13,0,19.4c0,8.8-0.4,17.8-2.2,26.4
		c-4,19.8-13.4,38.4-27,53.4c-13.4,15-31,26.2-50,32.2c-11.6,3.6-23.6,5.2-35.8,5.2c-5.4,0-284.1,0-288.3-0.2
		c-20.4-1-40.6-7.6-57.6-19c-16.6-11.2-30.2-26.8-39-44.8c-7.6-15.4-11.4-32.6-11.4-49.8c0-4,0-280.3,0-284.3
		c-0.4-17,3.2-33.8,10.6-49c8.6-18,22-33.8,38.6-45C67,8.3,87,1.5,107.4,0.5C109.4,0.1,111.6,0.1,113.8,0.1z"/>
	
		<linearGradient id="SVGID_2_" gradientUnits="userSpaceOnUse" x1="-0.7039" y1="510.8391" x2="1.2953" y2="510.8391" gradientTransform="matrix(-35.4115 200.8292 -200.8292 -35.4115 102827.6484 18239.3535)">
		<stop  offset="0" style="stop-color:#E39F3A"/>
		<stop  offset="1" style="stop-color:#D33929"/>
	</linearGradient>
	<path class="st1" d="M431.8,418.7c-1.8-2.8-3.8-5.6-6-8.2c-5-6-10.8-11.2-17.2-15.6c-8-5.4-17.4-8.8-27-9.2
		c-6.8-0.4-13.6,0.8-20,3.2c-6.4,2.2-12.6,5.4-18.6,8.6c-7,3.6-14,7.2-21.4,10.2c-8.8,3.6-18,6.4-27.4,8.4
		c-11.8,2.2-23.8,3-35.6,2.8c-21.4-0.4-42.8-3.6-63.2-9.6c-18-5.4-35.2-12.8-51.4-22.2c-14.2-8.2-27.4-17.6-39.8-28.2
		c-10.2-8.8-19.6-18.2-28.4-28.2c-6-7-11.8-14.4-17.2-22c-2.2-3-4.2-6.2-6-9.4L0,242.4V113.5C0,50.9,50.6,0.1,113.2,0.1h101l74.8,76
		C457.6,190.8,403,317.4,403,317.4S451,371.4,431.8,418.7z"/>
	<path class="st2" d="M289.3,76.1C458,190.8,403.4,317.4,403.4,317.4s48,54.2,28.6,101.6c0,0-19.8-33.2-53-33.2
		c-32,0-50.8,33.2-115.2,33.2c-143.3,0-211.1-119.8-211.1-119.8c129.1,85,217.3,24.8,217.3,24.8C211.9,290.2,88.2,128.6,88.2,128.6
		c107.8,91.8,154.3,116,154.3,116c-27.8-23-105.8-135.3-105.8-135.3c62.4,63.2,186.3,151.3,186.3,151.3
		C358.3,163,289.3,76.1,289.3,76.1z"/>
</g>
</svg>
